<svg xmlns="http://www.w3.org/2000/svg" viewBox="0 0 80.05 44.39"><defs><style>.cls-1{fill:#dd4748;}</style></defs><title>temple graphic assets 22</title><g id="Layer_4" data-name="Layer 4"><path class="cls-1" d="M0,40.92H5.23V6.27H0V3.93a25.75,25.75,0,0,0,6.87-.84,20.29,20.29,0,0,0,4.94-2H24.32V40.92H29.5v2.34H0Z"/><path class="cls-1" d="M33,22.18a35,35,0,0,1,.46-5.74A22.67,22.67,0,0,1,35,11.18a17.74,17.74,0,0,1,2.84-4.52,16.33,16.33,0,0,1,4.39-3.54A22.57,22.57,0,0,1,48.38.82,36.31,36.31,0,0,1,56.56,0a36.16,36.16,0,0,1,8.15.82,22.57,22.57,0,0,1,6.15,2.3,16.08,16.08,0,0,1,4.37,3.54,18,18,0,0,1,2.83,4.52,22.67,22.67,0,0,1,1.53,5.26,36.17,36.17,0,0,1,0,11.5,22.47,22.47,0,0,1-1.53,5.27,17.81,17.81,0,0,1-2.83,4.52,16.08,16.08,0,0,1-4.37,3.54,22.9,22.9,0,0,1-6.15,2.31,36.78,36.78,0,0,1-8.15.81,36.94,36.94,0,0,1-8.16-.81,22.92,22.92,0,0,1-6.17-2.31,16.33,16.33,0,0,1-4.39-3.54A17.57,17.57,0,0,1,35,33.21,22.53,22.53,0,0,1,33.47,28,35.11,35.11,0,0,1,33,22.18ZM56.56,42.34A3.35,3.35,0,0,0,59,41.42a6.36,6.36,0,0,0,1.44-3.23A37,37,0,0,0,61.15,32c.11-2.59.17-5.86.17-9.83s-.06-7.21-.17-9.8a37.31,37.31,0,0,0-.67-6.18A6.41,6.41,0,0,0,59,3a3.39,3.39,0,0,0-2.48-.92A3.43,3.43,0,0,0,54.05,3,6.49,6.49,0,0,0,52.6,6.2a38.42,38.42,0,0,0-.67,6.18c-.1,2.59-.16,5.86-.16,9.8s.06,7.24.16,9.83a38.15,38.15,0,0,0,.67,6.18,6.45,6.45,0,0,0,1.45,3.23A3.39,3.39,0,0,0,56.56,42.34Z"/></g></svg>