<svg xmlns="http://www.w3.org/2000/svg" viewBox="0 0 123.04 44.17"><defs><style>.cls-1{fill:#676666;}</style></defs><title>temple graphic assets 22</title><g id="Layer_4" data-name="Layer 4"><path class="cls-1" d="M0,40.71H5.21V6.24H0V3.91a25.92,25.92,0,0,0,6.83-.83,20.53,20.53,0,0,0,4.92-1.95H24.2V40.71h5.15v2.34H0Z"/><path class="cls-1" d="M32.25,35.06A5.1,5.1,0,0,1,33,32.32a7,7,0,0,1,2-2.1,10.46,10.46,0,0,1,3-1.36,13.81,13.81,0,0,1,3.71-.48,14.07,14.07,0,0,1,3.73.48,10.53,10.53,0,0,1,3,1.36,6.86,6.86,0,0,1,2,2.1,5.26,5.26,0,0,1,.74,2.74,5.46,5.46,0,0,1-.49,2.3,7,7,0,0,1-1.35,2,8.58,8.58,0,0,1-2.07,1.58,10.85,10.85,0,0,1-2.63,1c.71.1,1.42.17,2.13.22s1.36.07,2,.07a8.54,8.54,0,0,0,3.08-.55,6.54,6.54,0,0,0,2.51-1.65,7.76,7.76,0,0,0,1.69-2.81,11.67,11.67,0,0,0,.62-4A10.77,10.77,0,0,0,56,28.94a7.17,7.17,0,0,0-2.07-2.84,8.35,8.35,0,0,0-3.18-1.59A16.16,16.16,0,0,0,46.69,24a22.17,22.17,0,0,0-4.73.51,24.28,24.28,0,0,0-4.32,1.33l-1.42-1.72,3-23c1.48.05,3,.15,4.47.29s3,.3,4.55.47c2,.22,3.94.42,5.89.6s3.88.26,5.8.26a41.15,41.15,0,0,0,5.86-.41A21,21,0,0,0,71.1.83h1.78c0,.39.08.83.12,1.3s.07,1,.1,1.42.05.93.06,1.36,0,.8,0,1.1a10.66,10.66,0,0,1-1.06,5.06,8.28,8.28,0,0,1-2.88,3.13A12,12,0,0,1,65,15.8a27.65,27.65,0,0,1-5.07.44,49.54,49.54,0,0,1-6.26-.4q-3.18-.39-6-.81l-4.08-.58a26,26,0,0,0-3.2-.25l-1.06,8.55a60.45,60.45,0,0,1,8.31-2.5,42.39,42.39,0,0,1,9.26-1,36,36,0,0,1,7.21.68,18.53,18.53,0,0,1,5.71,2.12,10.67,10.67,0,0,1,3.76,3.7,10.45,10.45,0,0,1,1.34,5.4,11.35,11.35,0,0,1-1.58,6.18,11.3,11.3,0,0,1-4.54,4,23.67,23.67,0,0,1-7.21,2.16,62.78,62.78,0,0,1-9.57.65,69.57,69.57,0,0,1-8-.41,24.53,24.53,0,0,1-6.23-1.45,9.78,9.78,0,0,1-4.06-2.8A6.78,6.78,0,0,1,32.25,35.06Z"/><path class="cls-1" d="M81.55,35.89a5.25,5.25,0,0,1,.62-2.57,5.65,5.65,0,0,1,1.75-1.9,8.84,8.84,0,0,1,2.69-1.18,13.39,13.39,0,0,1,3.46-.42,13.9,13.9,0,0,1,3.51.42,9.46,9.46,0,0,1,2.79,1.18,5.77,5.77,0,0,1,1.85,1.9,4.88,4.88,0,0,1,.67,2.57,4.67,4.67,0,0,1-1.67,3.77,9.24,9.24,0,0,1-4.72,1.85,12.15,12.15,0,0,0,1.63.22c.59.05,1.14.08,1.65.08a10.52,10.52,0,0,0,4.38-.77,5.37,5.37,0,0,0,2.58-2.63,14.66,14.66,0,0,0,1.22-5c.21-2.06.34-4.64.37-7.74-.71.3-1.48.59-2.32.87a27.5,27.5,0,0,1-2.65.77,26,26,0,0,1-2.82.54,23,23,0,0,1-2.86.19,17.62,17.62,0,0,1-5.89-.93,13.47,13.47,0,0,1-4.49-2.59,11.29,11.29,0,0,1-2.87-4,12.66,12.66,0,0,1-1-5.08,16.58,16.58,0,0,1,.42-3.66,13.36,13.36,0,0,1,1.34-3.58A13.75,13.75,0,0,1,83.65,5a14.75,14.75,0,0,1,3.77-2.62A22.21,22.21,0,0,1,92.68.65,33.29,33.29,0,0,1,99.6,0a36.24,36.24,0,0,1,11.2,1.49A17.87,17.87,0,0,1,118,5.74a15.7,15.7,0,0,1,3.86,6.61A29.86,29.86,0,0,1,123,20.92a43.44,43.44,0,0,1-.43,6.12,25.38,25.38,0,0,1-1.45,5.55,18,18,0,0,1-2.74,4.72A15.78,15.78,0,0,1,114.13,41,21.77,21.77,0,0,1,108,43.33a35.91,35.91,0,0,1-8.22.84,45.55,45.55,0,0,1-7.84-.6,22.94,22.94,0,0,1-5.71-1.7,9.41,9.41,0,0,1-3.49-2.62A5.37,5.37,0,0,1,81.55,35.89Zm19.94-13.11a11.63,11.63,0,0,0,2.87-.38v-.59q0-4.8-.09-8.44a42.16,42.16,0,0,0-.5-6.09,9.52,9.52,0,0,0-1.25-3.71,2.67,2.67,0,0,0-2.33-1.26,4.23,4.23,0,0,0-1.71.38A3.65,3.65,0,0,0,97,4.13,9.45,9.45,0,0,0,95.87,7a21.81,21.81,0,0,0-.41,4.71,33,33,0,0,0,.31,4.88,11.37,11.37,0,0,0,1,3.45,5,5,0,0,0,1.86,2.05A5.46,5.46,0,0,0,101.49,22.78Z"/></g></svg>