<svg xmlns="http://www.w3.org/2000/svg" viewBox="0 0 90.03 42.59"><defs><style>.cls-1{fill:#4889a5;}</style></defs><title>temple graphic assets</title><g id="Layer_4" data-name="Layer 4"><path class="cls-1" d="M.86,38.68q2.25-1.91,4.7-4.22c1.64-1.54,3.24-3.16,4.82-4.85s3.09-3.43,4.52-5.22A49.65,49.65,0,0,0,18.68,19a29.56,29.56,0,0,0,2.58-5.25,14.11,14.11,0,0,0,1-4.92,8.84,8.84,0,0,0-.54-3.32,5.41,5.41,0,0,0-1.44-2.11,5.1,5.1,0,0,0-2.08-1.1A9.56,9.56,0,0,0,15.69,2a19,19,0,0,0-3.11.26,10.67,10.67,0,0,1,2.35,1A8.29,8.29,0,0,1,16.77,4.8,6.43,6.43,0,0,1,18,6.66a5.23,5.23,0,0,1,.43,2.1,5.31,5.31,0,0,1-.73,2.72,7.43,7.43,0,0,1-2,2.23,9.57,9.57,0,0,1-2.92,1.49,11.7,11.7,0,0,1-3.6.54,11.51,11.51,0,0,1-3.57-.54A9.51,9.51,0,0,1,2.7,13.71a7.43,7.43,0,0,1-2-2.23A5.31,5.31,0,0,1,0,8.76,5.59,5.59,0,0,1,1.43,5a10.65,10.65,0,0,1,4-2.74A27.09,27.09,0,0,1,11.72.57,52.86,52.86,0,0,1,19.82,0a41.19,41.19,0,0,1,5,.3,30.37,30.37,0,0,1,4.65.93,21.84,21.84,0,0,1,4.06,1.59,12.76,12.76,0,0,1,3.22,2.34A10.33,10.33,0,0,1,38.88,8.3a9.88,9.88,0,0,1,.77,4,10.16,10.16,0,0,1-.86,4.24,11.1,11.1,0,0,1-2.41,3.41,16.35,16.35,0,0,1-3.73,2.68,33,33,0,0,1-4.8,2.06,55.13,55.13,0,0,1-5.6,1.54q-3,.64-6.19,1.11a.54.54,0,0,0-.11.28l-.12.46a4.92,4.92,0,0,0-.14.63H36.83a9,9,0,0,0,.66-1c.22-.37.43-.74.62-1.12s.36-.76.51-1.12a10.55,10.55,0,0,0,.37-1l1.71.08-2.08,17H.86Z"/><path class="cls-1" d="M44.9,21.28a34.43,34.43,0,0,1,.44-5.51,22,22,0,0,1,1.47-5,16.92,16.92,0,0,1,2.73-4.33A15.81,15.81,0,0,1,53.74,3,22.18,22.18,0,0,1,59.65.78,35.18,35.18,0,0,1,67.49,0a35.18,35.18,0,0,1,7.82.78A22.1,22.1,0,0,1,81.21,3a15.61,15.61,0,0,1,4.19,3.4,17.16,17.16,0,0,1,2.72,4.33,21.49,21.49,0,0,1,1.46,5,34,34,0,0,1,0,11,21.43,21.43,0,0,1-1.46,5.06A17.21,17.21,0,0,1,85.4,36.2a15.58,15.58,0,0,1-4.19,3.39,21.77,21.77,0,0,1-5.9,2.21,35.14,35.14,0,0,1-7.82.79,35.24,35.24,0,0,1-7.83-.79,21.91,21.91,0,0,1-5.92-2.21,15.79,15.79,0,0,1-4.2-3.39,17,17,0,0,1-2.73-4.34,21.85,21.85,0,0,1-1.47-5.05A34.5,34.5,0,0,1,44.9,21.28ZM67.49,40.62a3.25,3.25,0,0,0,2.38-.89,6.23,6.23,0,0,0,1.39-3.09,37,37,0,0,0,.64-5.93c.1-2.49.16-5.63.16-9.43s-.06-6.92-.16-9.4A36.88,36.88,0,0,0,71.26,6a6.27,6.27,0,0,0-1.39-3.1A3.24,3.24,0,0,0,67.49,2a3.28,3.28,0,0,0-2.41.88A6.19,6.19,0,0,0,63.7,6a34.71,34.71,0,0,0-.64,5.93c-.11,2.48-.16,5.62-.16,9.4s.05,6.94.16,9.43a34.84,34.84,0,0,0,.64,5.93,6.15,6.15,0,0,0,1.38,3.09A3.29,3.29,0,0,0,67.49,40.62Z"/></g></svg>