<svg xmlns="http://www.w3.org/2000/svg" viewBox="0 0 63.34 108.33"><defs><style>.cls-1{fill:#87b862;}</style></defs><title>temple graphic assets</title><g id="Layer_4" data-name="Layer 4"><path class="cls-1" d="M31.41,42.75A2.45,2.45,0,1,0,29,40.3a2.45,2.45,0,0,0,2.45,2.45"/><path class="cls-1" d="M2.22,61.45,31.67,46.58,61,61.45ZM59.8,103.51H57.26V63H59.8ZM42.57,95.42a3.5,3.5,0,0,0-6.92,0c0,.07,0,.91,0,1v7H27.7v-7c0-.14,0-1-.06-1a3.5,3.5,0,0,0-6.92,0c0,.07,0,.91,0,1v7H7.55V63H55.74v40.55H42.63v-7c0-.14-.05-1-.06-1M3.49,63H6v40.55H3.49ZM59.8,106.82H3.49V105H59.8ZM10.32,49.75H22L10.32,55.66ZM36.93,36.29V47.54l-5.15-2.6a.28.28,0,0,0-.22,0L25.9,47.8V36.29Zm-11-3h11v1.47h-11Zm-1.1-4.73H38v3.21H24.8Zm3-6.12H35v4.6H27.81Zm0-2.68H35V21H27.81Zm2.81-6.36-.09-.24.13.22.18-.06a2.14,2.14,0,0,1,.54-.08h.07a2.14,2.14,0,0,1,.54.08l.22.08c1.46.54,2.58,2.51,2.77,4.84H27.84c.2-2.33,1.32-4.3,2.78-4.84m.79-7.28a30.67,30.67,0,0,1,.5,5.64,3,3,0,0,0-.5,0,3.13,3.13,0,0,0-.5,0,32.72,32.72,0,0,1,.5-5.64M52.74,49.75v5.77L41.31,49.75Zm9.89,10.76-8.37-4.22V49.75h1a.25.25,0,0,0,.25-.25v-1a.25.25,0,0,0-.25-.25H38.45v-12h.34A.25.25,0,0,0,39,36V35a.25.25,0,0,0-.25-.25h-.34V33.31h.85a.25.25,0,0,0,.25-.25V27.31a.25.25,0,0,0-.25-.25H36.53v-4.6h.36a.25.25,0,0,0,.25-.25v-1a.25.25,0,0,0-.25-.25h-.36V19.53l0-1c-.13-2.69-1.33-5.09-3.07-6.16,0-2.49-.28-6.61-1.27-7.72V.76a.76.76,0,1,0-1.51,0V4.62c-1,1.1-1.23,5.22-1.28,7.72-1.73,1.07-2.93,3.47-3.06,6.17l0,2.44h-.36a.25.25,0,0,0-.25.25v1a.25.25,0,0,0,.25.25h.36v4.6H23.53a.25.25,0,0,0-.25.25v5.75a.25.25,0,0,0,.25.25h.85v1.47H24a.25.25,0,0,0-.25.25v1a.25.25,0,0,0,.25.25h.34v12H8a.25.25,0,0,0-.25.25v1a.25.25,0,0,0,.25.25H8.8v6.68L.71,60.51A1.3,1.3,0,0,0,1.3,63H2v45.12a.25.25,0,0,0,.25.25H61.07a.25.25,0,0,0,.24-.25V63H62a1.27,1.27,0,0,0,1.26-1,1.29,1.29,0,0,0-.67-1.46"/><path class="cls-1" d="M28.61,66.26h6v5.47h-6Zm-1.26,7h8.48a.25.25,0,0,0,.25-.25V65a.25.25,0,0,0-.25-.25H27.35a.25.25,0,0,0-.25.25v8a.25.25,0,0,0,.25.25"/><path class="cls-1" d="M52.72,69.93c0-1.47-2.23-3.26-2.48-3.46l-.32-.24-.31.24c-.25.2-2.49,2-2.49,3.46v8.93h5.6Z"/><path class="cls-1" d="M13.68,66.47l-.31-.24-.31.24c-.26.2-2.49,2-2.49,3.46v8.93h5.6V69.93c0-1.47-2.23-3.26-2.49-3.46"/><path class="cls-1" d="M52.72,91.69c0-1.47-2.23-3.25-2.48-3.45L49.92,88l-.31.25c-.25.2-2.49,2-2.49,3.45v8.93h5.6Z"/><path class="cls-1" d="M13.68,88.24,13.37,88l-.31.25c-.26.2-2.49,2-2.49,3.45v8.93h5.6V91.69c0-1.47-2.23-3.25-2.49-3.45"/><path class="cls-1" d="M31.65,75.86c-1.75,0-5.37,0-5.37,2.46v9.84H37V78.32c0-2.46-3.62-2.46-5.36-2.46"/><path class="cls-1" d="M37.27,55.51c0,1.65-2.65,3.1-5.68,3.1s-5.68-1.45-5.68-3.1,2.65-3.1,5.68-3.1,5.68,1.45,5.68,3.1m-13,0c0,2.65,3.2,4.72,7.3,4.72s7.3-2.07,7.3-4.72-3.2-4.72-7.3-4.72-7.3,2.07-7.3,4.72"/><path class="cls-1" d="M28.1,55.51c0,1,1.57,1.77,3.49,1.77s3.49-.79,3.49-1.77-1.57-1.77-3.49-1.77-3.49.79-3.49,1.77"/></g></svg>