<svg xmlns="http://www.w3.org/2000/svg" viewBox="0 0 63.96 108.97"><defs><style>.cls-1,.cls-10,.cls-11,.cls-12,.cls-2,.cls-3,.cls-4,.cls-5,.cls-6,.cls-7,.cls-8,.cls-9{fill:none;stroke:#dd4748;stroke-linecap:round;stroke-miterlimit:10;}.cls-2{stroke-dasharray:1.47 2.94;}.cls-3{stroke-dasharray:2.18 4.37;}.cls-4{stroke-dasharray:1.98 3.96;}.cls-5{stroke-dasharray:1.62 3.24;}.cls-6{stroke-dasharray:1.51 3.02;}.cls-7{stroke-dasharray:2.16 4.33;}.cls-8{stroke-dasharray:1.51 3.02;}.cls-9{stroke-dasharray:1.62 3.25;}.cls-10{stroke-dasharray:2.12 4.24;}.cls-11{stroke-dasharray:2.23 4.46;}.cls-12{stroke-dasharray:1.99 3.98;}</style></defs><title>temple graphic assets</title><g id="Layer_4" data-name="Layer 4"><line class="cls-1" x1="62.81" y1="60.81" x2="61.92" y2="60.36"/><line class="cls-2" x1="59.3" y1="59.04" x2="56.68" y2="57.71"/><polyline class="cls-1" points="55.36 57.05 54.47 56.6 54.47 55.6"/><path class="cls-1" d="M54.47,51.08v-1h1"/><line class="cls-3" x1="52.82" y1="48.58" x2="41.9" y2="48.58"/><polyline class="cls-1" points="39.72 48.58 38.72 48.58 38.72 47.58"/><line class="cls-4" x1="38.72" y1="43.61" x2="38.72" y2="39.65"/><path class="cls-1" d="M38.72,37.67v-1h.34a.25.25,0,0,0,.25-.25v-.27"/><path class="cls-1" d="M39.31,35.68v-.27a.25.25,0,0,0-.25-.25h-.34V33.7h.84a.25.25,0,0,0,.15-.05"/><path class="cls-5" d="M39.81,30.44V27.72a.25.25,0,0,0-.25-.25h-.14"/><polyline class="cls-1" points="37.8 27.47 36.8 27.47 36.8 26.47"/><path class="cls-1" d="M36.8,23.89v-1h.36a.25.25,0,0,0,.25-.25v-.26"/><path class="cls-1" d="M37.41,21.88v-.25a.25.25,0,0,0-.25-.25H36.8v-1"/><path class="cls-6" d="M36.58,17.37a8.52,8.52,0,0,0-1.12-2.8"/><path class="cls-1" d="M34.52,13.41a4.92,4.92,0,0,0-.79-.61c0-.31,0-.65,0-1"/><path class="cls-7" d="M33.3,7.49a5.4,5.4,0,0,0-.84-2.39V1.25a.76.76,0,0,0-1.51,0V5.1c-.62.7-.95,2.6-1.11,4.54"/><path class="cls-1" d="M29.71,11.8c0,.35,0,.69,0,1a4.92,4.92,0,0,0-.79.61"/><path class="cls-8" d="M27.26,15.92a9.69,9.69,0,0,0-.63,2.94"/><path class="cls-1" d="M26.61,20.38v1h-.36a.25.25,0,0,0-.25.25v.25"/><path class="cls-1" d="M26,22.38v.26a.25.25,0,0,0,.25.25h.36v1"/><polyline class="cls-1" points="26.61 26.47 26.61 27.47 25.61 27.47"/><line class="cls-9" x1="23.6" y1="28.82" x2="23.6" y2="32.06"/><path class="cls-1" d="M23.71,33.65a.22.22,0,0,0,.14.05h.85v1.46h-.34a.26.26,0,0,0-.26.25v.27"/><path class="cls-1" d="M24.1,36.15v.27a.26.26,0,0,0,.26.25h.34v1"/><line class="cls-4" x1="24.7" y1="41.63" x2="24.7" y2="45.59"/><polyline class="cls-1" points="24.7 47.58 24.7 48.58 23.7 48.58"/><line class="cls-10" x1="19.46" y1="48.58" x2="8.85" y2="48.58"/><path class="cls-1" d="M8.18,50a.25.25,0,0,0,.17.06h.82v1"/><polyline class="cls-1" points="9.17 55.74 9.17 56.74 8.28 57.19"/><path class="cls-11" d="M4.3,59.2,1.11,60.81a1.26,1.26,0,0,0-.61.64"/><path class="cls-1" d="M1.37,63.22a1.66,1.66,0,0,0,.32,0h.68v1"/><path class="cls-12" d="M2.37,68.24v40a.25.25,0,0,0,.25.24H61.26a.25.25,0,0,0,.25-.24v-42"/><path class="cls-1" d="M61.51,64.25v-1h.72l.28,0"/><path class="cls-1" d="M63.46,61.54a1.29,1.29,0,0,0-.65-.73"/></g></svg>