<svg xmlns="http://www.w3.org/2000/svg" viewBox="0 0 63.21 108.12"><defs><style>.cls-1{fill:#4889a5;}</style></defs><title>temple graphic assets</title><g id="Layer_4" data-name="Layer 4"><path class="cls-1" d="M62.5,60.39l-8.35-4.22V49.65h1a.25.25,0,0,0,.24-.25v-1a.25.25,0,0,0-.24-.25H38.37V36.22h.34A.25.25,0,0,0,39,36V35a.25.25,0,0,0-.25-.25h-.34V33.24h.85a.25.25,0,0,0,.25-.24V27.26a.25.25,0,0,0-.25-.25H36.46V22.42h.35a.25.25,0,0,0,.25-.25v-1a.25.25,0,0,0-.25-.25h-.35V19.49l0-1c-.14-2.69-1.33-5.08-3.06-6.14-.05-2.5-.29-6.61-1.27-7.71V.75a.76.76,0,0,0-1.52,0V4.61c-1,1.1-1.22,5.21-1.26,7.71-1.74,1.06-2.93,3.45-3.07,6.15l0,2.44h-.35a.25.25,0,0,0-.25.25v1a.25.25,0,0,0,.25.25h.35V27H23.48a.25.25,0,0,0-.25.25V33a.25.25,0,0,0,.25.24h.85v1.47H24a.25.25,0,0,0-.25.25v1a.25.25,0,0,0,.25.25h.34V48.14H8a.25.25,0,0,0-.25.25v1a.25.25,0,0,0,.25.25h.83v6.66L.71,60.39a1.3,1.3,0,0,0,.58,2.45H2v45a.25.25,0,0,0,.25.25H60.94a.25.25,0,0,0,.25-.25v-45h.73a1.29,1.29,0,0,0,.58-2.45"/></g></svg>