<svg xmlns="http://www.w3.org/2000/svg" viewBox="0 0 63.59 108.76"><defs><style>.cls-1{fill:#d3d3d3;}</style></defs><title>temple graphic assets</title><g id="Layer_4" data-name="Layer 4"><path class="cls-1" d="M31.54,42.92a2.46,2.46,0,1,0-2.46-2.46,2.47,2.47,0,0,0,2.46,2.46"/><path class="cls-1" d="M2.23,61.69,31.79,46.76,61.24,61.69ZM60,103.92H57.48V63.21H60ZM42.74,95.79a3.52,3.52,0,0,0-7,0c0,.07-.06.92-.06,1.06v7.07H27.81V96.85c0-.14,0-1-.06-1.06a3.52,3.52,0,0,0-6.95,0c0,.07-.05.92-.05,1.06v7.07H7.58V63.21H56v40.71H42.79V96.85c0-.14,0-1,0-1.06M3.51,63.21H6.06v40.71H3.51Zm56.52,44H3.51v-1.8H60ZM10.36,49.94H22.11L10.36,55.88ZM37.08,36.43v11.3l-5.17-2.61a.24.24,0,0,0-.23,0L26,48V36.43ZM26,33.44H37.08v1.47H26Zm-1.11-4.75H38.18v3.23H24.89Zm3-6.14h7.23v4.62H27.92Zm0-2.7h7.23V21H27.92Zm2.81-6.38-.08-.24.13.22.18-.06a2.14,2.14,0,0,1,.54-.08h.08a2.28,2.28,0,0,1,.54.08l.22.08c1.46.54,2.58,2.52,2.78,4.87H28c.2-2.35,1.32-4.33,2.78-4.87m.81-7.31a33,33,0,0,1,.5,5.67,2.58,2.58,0,0,0-1,0,31.5,31.5,0,0,1,.51-5.67M53,49.94v5.8l-11.48-5.8Zm9.92,10.81-8.4-4.25V49.94h1a.25.25,0,0,0,.25-.25v-1a.25.25,0,0,0-.25-.25H38.6v-12h.34a.25.25,0,0,0,.25-.25v-1a.25.25,0,0,0-.25-.25H38.6V33.44h.85a.25.25,0,0,0,.25-.25V27.42a.25.25,0,0,0-.25-.25H36.67V22.55H37a.25.25,0,0,0,.25-.25v-1A.25.25,0,0,0,37,21h-.36V19.6l0-1c-.13-2.7-1.33-5.11-3.08-6.18,0-2.51-.28-6.64-1.27-7.75V.76a.76.76,0,1,0-1.52,0V4.64c-1,1.11-1.23,5.24-1.28,7.75-1.74,1.07-2.95,3.48-3.08,6.19l0,2.45H26a.25.25,0,0,0-.25.25v1a.25.25,0,0,0,.25.25h.36v4.62H23.62a.25.25,0,0,0-.25.25v5.77a.25.25,0,0,0,.25.25h.86v1.47h-.35a.25.25,0,0,0-.25.25v1a.25.25,0,0,0,.25.25h.35v12H8a.25.25,0,0,0-.25.25v1a.25.25,0,0,0,.25.25h.83v6.71L.72,60.75A1.26,1.26,0,0,0,0,62.21a1.27,1.27,0,0,0,1.26,1H2v45.3a.25.25,0,0,0,.25.25H61.3a.25.25,0,0,0,.25-.25V63.21h.73a1.3,1.3,0,0,0,.59-2.46"/><path class="cls-1" d="M28.72,66.51h6V72h-6Zm-1.27,7H36a.25.25,0,0,0,.25-.25v-8A.25.25,0,0,0,36,65H27.45a.25.25,0,0,0-.25.25v8a.25.25,0,0,0,.25.25"/><path class="cls-1" d="M52.93,70.2c0-1.48-2.24-3.27-2.5-3.47l-.31-.24-.32.24c-.25.2-2.49,2-2.49,3.47v9h5.62Z"/><path class="cls-1" d="M13.73,66.73l-.31-.24-.31.24c-.26.2-2.5,2-2.5,3.47v9h5.62v-9c0-1.48-2.24-3.27-2.5-3.47"/><path class="cls-1" d="M52.93,92.05c0-1.48-2.24-3.27-2.5-3.47l-.31-.24-.32.24c-.25.2-2.49,2-2.49,3.47v9h5.62Z"/><path class="cls-1" d="M13.73,88.58l-.31-.24-.31.24c-.26.2-2.5,2-2.5,3.47v9h5.62v-9c0-1.48-2.24-3.27-2.5-3.47"/><path class="cls-1" d="M31.77,76.16c-1.75,0-5.39,0-5.39,2.46v9.89H37.16V78.62c0-2.46-3.64-2.46-5.39-2.46"/><path class="cls-1" d="M37.42,55.73c0,1.65-2.67,3.11-5.71,3.11S26,57.38,26,55.73s2.66-3.11,5.7-3.11,5.71,1.45,5.71,3.11m-13,0c0,2.66,3.22,4.74,7.33,4.74s7.34-2.08,7.34-4.74S35.83,51,31.71,51s-7.33,2.08-7.33,4.74"/><path class="cls-1" d="M28.21,55.73c0,1,1.57,1.77,3.5,1.77s3.5-.79,3.5-1.77S33.65,54,31.71,54s-3.5.8-3.5,1.78"/></g></svg>