<svg id="Layer_1" data-name="Layer 1" xmlns="http://www.w3.org/2000/svg" viewBox="0 0 396 396"><defs><style>.cls-1{fill:#a1c5ad;}.cls-2{fill:#0a722b;}.cls-3{fill:#fff;}.cls-4{fill:none;stroke:#0a722b;stroke-miterlimit:10;stroke-width:10px;}</style></defs><title>icons for relig freedom</title><path class="cls-1" d="M317,169.09c0-42-31.22-76.09-69.73-76.09C228,93,210.62,101.5,198,115.24,185.38,101.5,168,93,148.73,93,110.22,93,79,127.07,79,169.09a79.54,79.54,0,0,0,19.86,53.16l7.43,7.94L197.42,331l97.4-106.28C308.46,210.83,317,191.05,317,169.09Z"/><path class="cls-2" d="M197.4,338.43,102.58,233.54l-7.44-7.95A84.38,84.38,0,0,1,74,169.09C74,124.38,107.52,88,148.73,88A70.89,70.89,0,0,1,198,108.11,70.89,70.89,0,0,1,247.27,88C288.48,88,322,124.38,322,169.09c0,22.27-8.58,43.79-23.55,59.07ZM102.55,218.88l7.39,7.9,87.51,96.79,93.81-102.35C304.44,207.79,312,188.79,312,169.09,312,129.89,283,98,247.27,98c-17.19,0-33.38,7.33-45.59,20.62l-3.68,4-3.68-4C182.11,105.33,165.92,98,148.73,98,113,98,84,129.89,84,169.09A74.41,74.41,0,0,0,102.55,218.88Z"/><circle class="cls-3" cx="235.14" cy="152.12" r="21.98"/><path class="cls-2" d="M164.2,221.2c-14,0-26-11.94-30.19-25.17-3.75-10.63-7.63-21.62-9.57-33.27l-.07-.41v-.41c0-.7,0-1.4-.07-2.09a20.59,20.59,0,0,1,1.06-9.14l.15-.37.2-.34c4.46-7.44,13.37-10.59,23.26-8.23l-2.32,9.72c-4.18-1-9.5-.63-12.13,3.29a13.46,13.46,0,0,0-.23,4.57c0,.72.07,1.43.08,2.15,1.82,10.68,5.36,20.68,9.09,31.27l.06.16c2.75,8.73,12.24,20.47,23.87,17.92l2.13,9.78A25,25,0,0,1,164.2,221.2Z"/><path class="cls-2" d="M164.09,221.2a25.09,25.09,0,0,1-5.32-.57l2.13-9.78c11.63,2.54,21.12-9.19,23.88-17.92l.05-.16c3.74-10.59,7.27-20.6,9.09-31.27,0-.72.05-1.43.08-2.15a13.47,13.47,0,0,0-.22-4.57c-2.64-3.92-8-4.28-12.14-3.29l-2.31-9.72c9.88-2.36,18.8.79,23.25,8.23l.21.34.15.37a20.71,20.71,0,0,1,1.05,9.14c0,.69-.07,1.39-.07,2.09v.41l-.07.41c-1.94,11.65-5.81,22.64-9.56,33.27C190.08,209.26,178.1,221.2,164.09,221.2Z"/><rect class="cls-2" x="142.19" y="140.07" width="10" height="12.19"/><rect class="cls-2" x="175.93" y="140.07" width="10" height="12.19"/><path class="cls-2" d="M200.77,268.63a50.06,50.06,0,0,1-13.36-1.88c-26.63-7.37-29.39-36.8-27.13-51.34l9.88,1.54-4.94-.77,4.95.76c-.21,1.36-4.77,33.34,19.91,40.17,14.06,3.89,23.57-.29,29.08-4.48C226.6,247,230,238.91,230,233.81V169.44h10v64.37c0,9.44-5.8,19.95-14.78,26.78A39.77,39.77,0,0,1,200.77,268.63Z"/><path class="cls-2" d="M235,176.94a24.38,24.38,0,1,1,24.37-24.37A24.4,24.4,0,0,1,235,176.94Zm0-38.75a14.38,14.38,0,1,0,14.37,14.38A14.4,14.4,0,0,0,235,138.19Z"/><circle class="cls-4" cx="198" cy="198" r="186"/></svg>