<svg id="Layer_1" data-name="Layer 1" xmlns="http://www.w3.org/2000/svg" viewBox="0 0 396 396"><defs><style>.cls-1{fill:#a1c5ad;}.cls-2{fill:#fff;}.cls-3{fill:#0a722b;}</style></defs><title>icons for relig freedom</title><rect class="cls-1" x="121.39" y="138.72" width="187.87" height="165.07"/><polygon class="cls-2" points="155.14 272.78 155.14 236.3 169.73 236.3 169.73 203.47 184.32 200.74 184.32 170.64 239.04 173.38 239.04 200.74 241.78 203.47 255.46 203.47 255.46 236.3 267.31 236.3 270.05 272.78 155.14 272.78"/><path class="cls-3" d="M314.26,308.79H116.39V133.72H314.26Zm-187.87-10H304.26V143.72H126.39Z"/><rect class="cls-3" x="150.34" y="105.89" width="10" height="32.83"/><rect class="cls-3" x="267.78" y="105.89" width="10" height="32.83"/><rect class="cls-3" x="84" y="100.89" width="228" height="10"/><rect class="cls-3" x="79" y="92.21" width="10" height="27.36"/><polygon class="cls-3" points="157.42 276.02 157.42 238.58 267.77 238.58 267.77 276.02 272.33 276.02 272.33 234.02 152.86 234.02 152.86 276.02 157.42 276.02"/><rect class="cls-3" x="136.9" y="272.78" width="153.22" height="4.56"/><polygon class="cls-3" points="172.48 234.75 172.48 205.75 254.09 205.75 254.09 234.75 258.65 234.75 258.65 201.19 167.92 201.19 167.92 234.75 172.48 234.75"/><polygon class="cls-3" points="242.23 203.47 237.67 203.47 237.67 174.74 186.6 174.74 186.6 203.47 182.04 203.47 182.04 170.18 242.23 170.18 242.23 203.47"/><path class="cls-3" d="M169.83,253.18a16.6,16.6,0,0,1-16.52-16.65v-2.4h33v2.23c0,.06,0,.12,0,.17A16.6,16.6,0,0,1,169.83,253.18ZM158,238.69a12,12,0,0,0,23.6,0Z"/><path class="cls-3" d="M198.34,253.18a16.6,16.6,0,0,1-16.52-16.65v-2.4h33v2.4A16.6,16.6,0,0,1,198.34,253.18Zm-11.8-14.49a12,12,0,0,0,23.6,0Z"/><path class="cls-3" d="M226.85,253.18a16.6,16.6,0,0,1-16.52-16.65v-2.4h33v2.4A16.6,16.6,0,0,1,226.85,253.18Zm-11.8-14.49a12,12,0,0,0,23.6,0Z"/><path class="cls-3" d="M255.36,253.18a16.6,16.6,0,0,1-16.52-16.65v-2.4h33v2.4A16.6,16.6,0,0,1,255.36,253.18Zm-11.8-14.49a12,12,0,0,0,23.6,0Z"/><path class="cls-3" d="M184.55,219.78a16.67,16.67,0,0,1-16.65-16.65v-2.39h33.28v2.39A16.66,16.66,0,0,1,184.55,219.78ZM172.66,205.3a12.09,12.09,0,0,0,23.78,0Z"/><path class="cls-3" d="M213.28,219.78a16.67,16.67,0,0,1-16.65-16.65v-2.39h33.27V203a1,1,0,0,1,0,.17A16.67,16.67,0,0,1,213.28,219.78ZM201.39,205.3a12.09,12.09,0,0,0,23.78,0Z"/><path class="cls-3" d="M242,219.78a16.67,16.67,0,0,1-16.64-16.65v-2.39h33.27V203a1,1,0,0,1,0,.17A16.67,16.67,0,0,1,242,219.78ZM230.11,205.3a12.09,12.09,0,0,0,23.78,0Z"/><path class="cls-3" d="M198.57,189.68c-8.86,0-16.07-7.46-16.07-16.64v-2.4h32.14v2.23a.91.91,0,0,1,0,.17C214.65,182.22,207.44,189.68,198.57,189.68ZM187.24,175.2a11.44,11.44,0,0,0,22.67,0Z"/><path class="cls-3" d="M226.17,189.68c-8.87,0-16.08-7.46-16.08-16.64v-2.4h32.14v2.63C242.09,182.33,234.89,189.68,226.17,189.68ZM214.83,175.2a11.43,11.43,0,0,0,22.66,0Z"/><path class="cls-3" d="M198,389C92.68,389,7,303.32,7,198S92.68,7,198,7,389,92.68,389,198,303.32,389,198,389Zm0-372C98.2,17,17,98.2,17,198S98.2,379,198,379s181-81.2,181-181S297.8,17,198,17Z"/></svg>