<svg id="Layer_1" data-name="Layer 1" xmlns="http://www.w3.org/2000/svg" viewBox="0 0 396 396"><defs><style>.cls-1{fill:#a1c5ad;}.cls-2{fill:#0a722b;}</style></defs><title>icons for relig freedom</title><path class="cls-1" d="M247.42,119.61C257.13,142,263,171.15,263,203c0,70.87-29.1,128.32-65,128.32S133,273.83,133,203c0-33.84,6.64-64.63,17.48-87.55.33-.71.67-1.4,1-2.09l3.28,10.23,2.9,7.26,3.63,9.45,6.54,5.81,5.81,5.81,8,2.9,10.17,3.64,8.72,1.45,8-.73,8.72-1.45,6.54-2.91,10.17-8,7.26-10.16Z"/><path class="cls-2" d="M199.68,166.1a53.19,53.19,0,1,1,53.19-53.19A53.25,53.25,0,0,1,199.68,166.1Zm0-96.38a43.19,43.19,0,1,0,43.19,43.19A43.24,43.24,0,0,0,199.68,69.72Z"/><path class="cls-2" d="M198,336.28c-19.34,0-37.25-14.32-50.42-40.32C135,271,128,238,128,203c0-33.35,6.38-65.2,18-89.69.42-.88.84-1.74,1.26-2.6l8.95,4.47q-.58,1.19-1.17,2.4c-11,23.18-17,53.52-17,85.42,0,33.51,6.57,64.93,18.5,88.48,11.38,22.47,26.12,34.84,41.5,34.84s30.12-12.37,41.5-34.84c11.93-23.55,18.5-55,18.5-88.48,0-29.89-5.39-58.78-15.17-81.36l9.18-4c10.31,23.8,16,54.11,16,85.33,0,35-6.95,68.07-19.58,93C235.25,322,217.34,336.28,198,336.28Z"/><path class="cls-2" d="M230.68,320,220.89,318c4.39-20.73,4.09-44.59-.91-70.92C211,199.88,159.25,162.74,137.4,149l5.33-8.46c23,14.49,77.4,53.67,87.08,104.69C235.05,272.81,235.34,298,230.68,320Z"/><path class="cls-2" d="M205.59,200.76l-8.22-5.69c18.26-26.41,43.82-42.52,57.43-49.77l4.71,8.83C246.69,161,222.65,176.09,205.59,200.76Z"/><path class="cls-2" d="M186,104a7.41,7.41,0,0,1-12.42.82l-4.4.29a11.38,11.38,0,0,0,21.23-1.4Z"/><path class="cls-2" d="M222.16,104.84a7.41,7.41,0,0,1-12.42-.8l-4.4-.28a11.37,11.37,0,0,0,21.22,1.37Z"/><path class="cls-2" d="M204.11,132.17a7.42,7.42,0,0,1-12.45,0h-4.41a11.37,11.37,0,0,0,21.27,0Z"/><path class="cls-2" d="M198,389C92.68,389,7,303.32,7,198S92.68,7,198,7,389,92.68,389,198,303.32,389,198,389Zm0-372C98.2,17,17,98.2,17,198S98.2,379,198,379s181-81.2,181-181S297.8,17,198,17Z"/></svg>