<svg id="Layer_1" data-name="Layer 1" xmlns="http://www.w3.org/2000/svg" viewBox="0 0 396 396"><defs><style>.cls-1{fill:#a1c5ad;}.cls-2{fill:#0a722b;}</style></defs><title>icons for relig freedom</title><polygon class="cls-1" points="145.04 332.66 250.64 332.66 250 293.8 302 275.6 252.6 180.7 221.4 180.7 199.3 211.9 175.9 180.7 147.3 180.7 94 275.6 146 293.8 145.04 332.66"/><path class="cls-2" d="M199.53,178.05a44,44,0,1,1,44-44A44.05,44.05,0,0,1,199.53,178.05Zm0-78a34,34,0,1,0,34,34A34,34,0,0,0,199.53,100.05Z"/><path class="cls-2" d="M255.75,337.66H139.88l1-42-54.19-19,57.65-102.65h34l20.78,27.71,19.63-27.71h36.82L309.1,276.79l-54,18.92Zm-105.62-10h95.45l-.64-39,50-17.49-45.33-87.09H224l-24.57,34.69-26-34.69H150.23l-48.95,87.15,49.81,17.44Z"/><polygon class="cls-1" points="137.63 83.49 200.03 66.59 261.13 83.49 237.73 93.89 237.73 114.69 162.33 114.69 161.03 92.59 137.63 83.49"/><path class="cls-2" d="M242.77,116.44H157.66l-1.39-23.6L121.69,79.39l78.4-21.23,75.87,21L242.77,93.89Zm-75.68-10h65.68v-19l13.62-6.06L200.06,68.53l-46.4,12.56,12.22,4.76Z"/><path class="cls-2" d="M198,389C92.68,389,7,303.32,7,198S92.68,7,198,7,389,92.68,389,198,303.32,389,198,389Zm0-372C98.2,17,17,98.2,17,198S98.2,379,198,379s181-81.2,181-181S297.8,17,198,17Z"/></svg>