<svg id="Layer_1" data-name="Layer 1" xmlns="http://www.w3.org/2000/svg" viewBox="0 0 215 215"><defs><style>.cls-1{fill:#a1c5ad;}.cls-2{fill:#0a722b;}</style></defs><title>secondary icons for relig freedom</title><polygon class="cls-1" points="32.4 200.95 181.4 200.95 156.4 155.95 141.4 141.95 54.4 161.95 32.4 200.95"/><path class="cls-2" d="M188.83,34H204.5V4H10.5V34H26.17c11,30.64,30.15,56.84,54.46,74.18C55.38,125.68,35.7,153,25,185H10.5v30h194V185H190c-10.7-31.93-30.38-59.27-55.63-76.82C158.68,90.79,177.81,64.59,188.83,34ZM58.46,34h98.08c-9.77,21.79-24.6,40-42.71,51.9L107.5,90l-6.33-4.17C83.06,74,68.23,55.74,58.46,34ZM158,185H57c9.19-22,23.64-40.57,41.48-52.72l9-6.12,9,6.12C134.34,144.38,148.79,162.93,158,185Z"/></svg>