<svg id="Layer_1" data-name="Layer 1" xmlns="http://www.w3.org/2000/svg" viewBox="0 0 396 396"><defs><style>.cls-1{fill:#a1c5ad;}.cls-2{fill:#0a722b;}.cls-3{fill:#fff;}</style></defs><title>icons for relig freedom</title><rect class="cls-1" x="110.83" y="85.5" width="176.09" height="225.01"/><path class="cls-2" d="M291.93,315.5H104V80.5H291.93ZM114,305.5H281.93V90.5H114Z"/><rect class="cls-2" x="131.01" y="122.14" width="133.29" height="10"/><rect class="cls-2" x="131.01" y="162.63" width="133.29" height="10"/><rect class="cls-2" x="131.01" y="182.88" width="133.29" height="10"/><rect class="cls-2" x="131.01" y="203.12" width="133.29" height="10"/><rect class="cls-2" x="131.01" y="223.37" width="133.29" height="10"/><rect class="cls-2" x="131.01" y="243.61" width="133.29" height="10"/><rect class="cls-2" x="131.01" y="263.86" width="133.29" height="10"/><rect class="cls-2" x="131.01" y="284.1" width="133.29" height="10"/><rect class="cls-2" x="131.01" y="142.39" width="133.29" height="10"/><polygon class="cls-3" points="206.83 179.66 193.99 211.45 230.67 205.34 323 127.69 300.99 102.62 206.83 179.66"/><path class="cls-2" d="M186,217.85l16.66-41.25,98.89-80.91,28.57,32.53L232.85,210Zm25-35.13-9,22.33,26.54-4.42,87.37-73.48-15.45-17.61Z"/><path class="cls-2" d="M198,389C92.68,389,7,303.32,7,198S92.68,7,198,7,389,92.68,389,198,303.32,389,198,389Zm0-372C98.2,17,17,98.2,17,198S98.2,379,198,379s181-81.2,181-181S297.8,17,198,17Z"/></svg>