<svg id="Layer_1" data-name="Layer 1" xmlns="http://www.w3.org/2000/svg" viewBox="0 0 396 396"><defs><style>.cls-1{fill:#a1c5ad;}.cls-2{fill:#0a722b;}</style></defs><title>icons for relig freedom</title><polygon class="cls-1" points="154.69 73.55 228.82 100.44 228.82 133.03 302.96 159.91 302.96 286.19 192.98 245.46 192.98 222.65 154.69 208.79 154.69 73.55"/><path class="cls-2" d="M232.88,241.71l-82.18-30.5V67.67l82.18,30.18ZM158.7,205.65l66.18,24.56V103.43L158.7,79.13Z"/><path class="cls-2" d="M307.38,292.25,189,248.42V217.31l35.66,13.05.29-102.9L306.76,158ZM197,242.85l102.37,37.89-.54-117.22L232.86,139l-.29,102.83-35.62-13Z"/><path class="cls-2" d="M136.74,335a10.1,10.1,0,0,1-10.09-10.08V71.08a10.09,10.09,0,0,1,20.17,0V324.92A10.09,10.09,0,0,1,136.74,335Zm0-266a2.09,2.09,0,0,0-2.09,2.08V324.92a2.09,2.09,0,0,0,4.17,0V71.08A2.08,2.08,0,0,0,136.74,69Z"/><rect class="cls-2" x="188.08" y="66.59" width="8" height="79.02" transform="translate(26.27 249.84) rotate(-69.84)"/><rect class="cls-2" x="188.08" y="85.97" width="8" height="79.02" transform="translate(8.09 262.54) rotate(-69.84)"/><rect class="cls-2" x="188.08" y="105.34" width="8" height="79.02" transform="translate(-10.1 275.23) rotate(-69.84)"/><rect class="cls-2" x="188.08" y="124.71" width="8" height="79.02" transform="translate(-28.28 287.93) rotate(-69.84)"/><rect class="cls-2" x="188.08" y="144.08" width="8" height="79.02" transform="translate(-46.47 300.62) rotate(-69.84)"/><rect class="cls-2" x="188.08" y="163.46" width="8" height="79.02" transform="translate(-64.66 313.32) rotate(-69.84)"/><rect class="cls-2" x="262.26" y="124.88" width="8" height="79.02" transform="translate(20.17 357.67) rotate(-69.84)"/><rect class="cls-2" x="262.26" y="142.84" width="8" height="79.02" transform="translate(3.31 369.44) rotate(-69.84)"/><rect class="cls-2" x="262.26" y="160.81" width="8" height="79.02" transform="translate(-13.56 381.21) rotate(-69.84)"/><rect class="cls-2" x="262.26" y="178.77" width="8" height="79.02" transform="translate(-30.42 392.99) rotate(-69.84)"/><rect class="cls-2" x="262.26" y="196.74" width="8" height="79.02" transform="translate(-47.29 404.76) rotate(-69.84)"/><rect class="cls-2" x="262.26" y="214.7" width="8" height="79.02" transform="translate(-64.15 416.53) rotate(-69.84)"/><rect class="cls-2" x="225.75" y="201.37" width="8" height="79.02" transform="translate(-75.56 373.53) rotate(-69.84)"/><path class="cls-2" d="M198,389C92.68,389,7,303.32,7,198S92.68,7,198,7,389,92.68,389,198,303.32,389,198,389Zm0-372C98.2,17,17,98.2,17,198S98.2,379,198,379s181-81.2,181-181S297.8,17,198,17Z"/></svg>