<svg id="Layer_1" data-name="Layer 1" xmlns="http://www.w3.org/2000/svg" viewBox="0 0 396 396"><defs><style>.cls-1{fill:#a1c5ad;}.cls-2{fill:#0a722b;}</style></defs><title>icons for relig freedom</title><circle class="cls-1" cx="102.58" cy="198.5" r="32.81"/><path class="cls-2" d="M102.58,236a37.5,37.5,0,1,1,37.5-37.5A37.54,37.54,0,0,1,102.58,236Zm0-65.62A28.12,28.12,0,1,0,130.7,198.5,28.15,28.15,0,0,0,102.58,170.38Z"/><circle class="cls-1" cx="201.88" cy="198.5" r="32.81"/><path class="cls-2" d="M201.88,236a37.5,37.5,0,1,1,37.5-37.5A37.54,37.54,0,0,1,201.88,236Zm0-65.62A28.12,28.12,0,1,0,230,198.5,28.15,28.15,0,0,0,201.88,170.38Z"/><circle class="cls-1" cx="301.18" cy="198.5" r="32.81"/><path class="cls-2" d="M301.18,236a37.5,37.5,0,1,1,37.5-37.5A37.54,37.54,0,0,1,301.18,236Zm0-65.62a28.12,28.12,0,1,0,28.13,28.12A28.15,28.15,0,0,0,301.18,170.38Z"/><path class="cls-2" d="M198,389C92.68,389,7,303.32,7,198S92.68,7,198,7,389,92.68,389,198,303.32,389,198,389Zm0-372C98.2,17,17,98.2,17,198S98.2,379,198,379s181-81.2,181-181S297.8,17,198,17Z"/></svg>